<?xml version="1.0" encoding="UTF-8" standalone="no"?>
<svg
   xmlns:dc="http://purl.org/dc/elements/1.1/"
   xmlns:cc="http://creativecommons.org/ns#"
   xmlns:rdf="http://www.w3.org/1999/02/22-rdf-syntax-ns#"
   xmlns:svg="http://www.w3.org/2000/svg"
   xmlns="http://www.w3.org/2000/svg"
   viewBox="0 0 800 800"
   height="800"
   width="800"
   xml:space="preserve"
   id="svg2"
   version="1.1"><metadata
     id="metadata8"><rdf:RDF><cc:Work
         rdf:about=""><dc:format>image/svg+xml</dc:format><dc:type
           rdf:resource="http://purl.org/dc/dcmitype/StillImage" /></cc:Work></rdf:RDF></metadata><defs
     id="defs6"><clipPath
       id="clipPath20"
       clipPathUnits="userSpaceOnUse"><path
         id="path18"
         d="M 0,600 H 600 V 0 H 0 Z" /></clipPath></defs><g
     transform="matrix(1.3333333,0,0,-1.3333333,0,800)"
     id="g10"><path
       id="path12"
       style="fill:#ffffff;fill-opacity:1;fill-rule:nonzero;stroke:#ed1c24;stroke-width:9;stroke-linecap:butt;stroke-linejoin:miter;stroke-miterlimit:10;stroke-dasharray:none;stroke-opacity:1"
       d="M 389.929,250.17 H 176.821 v 195.401 h 213.108 z" /><g
       id="g14"><g
         clip-path="url(#clipPath20)"
         id="g16"><g
           transform="translate(304.9912,445.5713)"
           id="g22"><path
             id="path24"
             style="fill:#ffffff;fill-opacity:1;fill-rule:nonzero;stroke:none"
             d="m 0,0 h 86.608 v -78.605 c 0,0 -56.797,-7.45 -71.01,13.966 C 6.524,-50.961 0,-23.665 0,0" /></g><g
           transform="translate(304.9912,445.5713)"
           id="g26"><path
             id="path28"
             style="fill:none;stroke:#231f20;stroke-width:30;stroke-linecap:butt;stroke-linejoin:miter;stroke-miterlimit:10;stroke-dasharray:none;stroke-opacity:1"
             d="m 0,0 h 86.608 v -78.605 c 0,0 -56.797,-7.45 -71.01,13.966 C 6.524,-50.961 0,-23.665 0,0 Z" /></g><g
           transform="translate(263.79,445.5713)"
           id="g30"><path
             id="path32"
             style="fill:#ffffff;fill-opacity:1;fill-rule:nonzero;stroke:none"
             d="m 0,0 h -86.61 v -78.605 c 0,0 56.798,-7.45 71.01,13.966 C -6.523,-50.961 0,-23.665 0,0" /></g><g
           transform="translate(263.79,445.5713)"
           id="g34"><path
             id="path36"
             style="fill:none;stroke:#231f20;stroke-width:30;stroke-linecap:butt;stroke-linejoin:miter;stroke-miterlimit:10;stroke-dasharray:none;stroke-opacity:1"
             d="m 0,0 h -86.61 v -78.605 c 0,0 56.798,-7.45 71.01,13.966 C -6.523,-50.961 0,-23.665 0,0 Z" /></g><g
           transform="translate(391.5996,327.0596)"
           id="g38"><path
             id="path40"
             style="fill:#ffffff;fill-opacity:1;fill-rule:nonzero;stroke:none"
             d="m 0,0 v -76.89 h -83.267 c 0,0 9.525,77.192 83.267,76.89" /></g><g
           transform="translate(391.5996,327.0596)"
           id="g42"><path
             id="path44"
             style="fill:none;stroke:#231f20;stroke-width:30;stroke-linecap:butt;stroke-linejoin:miter;stroke-miterlimit:10;stroke-dasharray:none;stroke-opacity:1"
             d="m 0,0 v -76.89 h -83.267 c 0,0 9.525,77.192 83.267,76.89 z" /></g><g
           transform="translate(176.8203,327.0596)"
           id="g46"><path
             id="path48"
             style="fill:#ffffff;fill-opacity:1;fill-rule:nonzero;stroke:none"
             d="M 0,0 V -76.89 H 83.267 C 83.267,-76.89 73.742,0.302 0,0" /></g><g
           transform="translate(176.8203,327.0596)"
           id="g50"><path
             id="path52"
             style="fill:none;stroke:#231f20;stroke-width:30;stroke-linecap:butt;stroke-linejoin:miter;stroke-miterlimit:10;stroke-dasharray:none;stroke-opacity:1"
             d="M 0,0 V -76.89 H 83.267 C 83.267,-76.89 73.742,0.302 0,0 Z" /></g></g></g></g></svg>